<?xml version="1.0" standalone="no"?><!DOCTYPE svg PUBLIC "-//W3C//DTD SVG 1.1//EN" "http://www.w3.org/Graphics/SVG/1.1/DTD/svg11.dtd"><svg class="icon" width="18px" height="18.00px" viewBox="0 0 1024 1024" version="1.1" xmlns="http://www.w3.org/2000/svg"><path fill="#ffffff" d="M456.843796 475.757564 320.331679 475.757564c-85.923952 0-155.841348-69.917396-155.841348-155.841348s69.917396-155.841348 155.841348-155.841348 155.841348 69.917396 155.841348 155.841348L476.173027 456.428334C476.173027 467.112674 467.528136 475.757564 456.843796 475.757564zM320.331679 202.734354c-64.612577 0-117.182886 52.570309-117.182886 117.182886s52.570309 117.182886 117.182886 117.182886l117.182886 0L437.514565 319.91724C437.514565 255.30364 384.945279 202.734354 320.331679 202.734354zM703.667298 475.757564 567.156204 475.757564c-10.683317 0-19.329231-8.644891-19.329231-19.329231L547.826973 319.91724c0-85.923952 69.917396-155.841348 155.841348-155.841348s155.841348 69.917396 155.841348 155.841348S789.591249 475.757564 703.667298 475.757564zM586.484412 437.099103l117.182886 0c64.612577 0 117.182886-52.570309 117.182886-117.182886s-52.570309-117.182886-117.182886-117.182886-117.182886 52.570309-117.182886 117.182886L586.484412 437.099103zM320.331679 859.924107c-85.923952 0-155.841348-69.917396-155.841348-155.841348s69.917396-155.841348 155.841348-155.841348l136.512117 0c10.68434 0 19.329231 8.644891 19.329231 19.329231l0 136.512117C476.173027 790.006711 406.255631 859.924107 320.331679 859.924107zM320.331679 586.899874c-64.612577 0-117.182886 52.570309-117.182886 117.182886s52.570309 117.182886 117.182886 117.182886 117.182886-52.570309 117.182886-117.182886L437.514565 586.899874 320.331679 586.899874zM703.667298 859.924107c-85.923952 0-155.841348-69.917396-155.841348-155.841348L547.82595 567.570643c0-10.68434 8.644891-19.329231 19.329231-19.329231l136.512117 0c85.923952 0 155.841348 69.917396 155.841348 155.841348S789.591249 859.924107 703.667298 859.924107zM586.484412 586.899874l0 117.182886c0 64.612577 52.570309 117.182886 117.182886 117.182886s117.182886-52.570309 117.182886-117.182886S768.280898 586.899874 703.667298 586.899874L586.484412 586.899874z" /></svg>