<?xml version="1.0" standalone="no"?><!DOCTYPE svg PUBLIC "-//W3C//DTD SVG 1.1//EN" "http://www.w3.org/Graphics/SVG/1.1/DTD/svg11.dtd"><svg class="icon" width="18px" height="18.00px" viewBox="0 0 1024 1024" version="1.1" xmlns="http://www.w3.org/2000/svg"><path fill="#ffffff" d="M759.346 958.194c-5.26 0-10.521-1.314-15.272-3.963l-237.461-131.711-237.963 130.888c-10.551 5.834-23.525 5.072-33.346-1.889-9.859-6.954-14.861-18.95-12.911-30.824l46.13-280.177-193.31-198.844c-8.131-8.375-10.998-20.59-7.343-31.675 3.622-11.115 13.101-19.297 24.62-21.287l152.601-26.171c17.345-2.89 33.443 8.599 36.375 25.725 2.926 17.125-8.569 33.413-25.732 36.372l-93.645 16.055 162.704 167.358c6.967 7.182 10.107 17.223 8.501 27.052l-38.197 231.902 196.433-108.064c9.472-5.227 21.008-5.227 30.445 0.063l195.991 108.698-37.413-232.004c-1.601-9.854 1.611-19.895 8.569-27.014l162.044-165.558-222.065-34.264c-10.388-1.606-19.27-8.278-23.743-17.796l-97.615-208.972-98.458 208.447c-7.435 15.743-26.205 22.448-41.948 15.022-15.711-7.435-22.449-26.197-15.023-41.944l127.095-269.063c5.223-11.018 16.303-18.040 28.469-18.040h0.059c12.223 0.034 23.305 7.119 28.473 18.167l118.864 254.491 266.019 41.062c11.688 1.793 21.353 9.981 25.099 21.159 3.722 11.173 0.851 23.554-7.367 31.957l-193.786 197.993 45.186 280.309c1.923 11.899-3.148 23.861-12.999 30.795-5.393 3.857-11.723 5.745-18.078 5.745v0 0zM759.346 958.194z" /></svg>