<?xml version="1.0" standalone="no"?><!DOCTYPE svg PUBLIC "-//W3C//DTD SVG 1.1//EN" "http://www.w3.org/Graphics/SVG/1.1/DTD/svg11.dtd"><svg class="icon" width="18px" height="18.00px" viewBox="0 0 1024 1024" version="1.1" xmlns="http://www.w3.org/2000/svg"><path fill="#ffffff" d="M946.095647 489.741539c-12.754098 0-22.258461 9.637914-22.258461 22.258461v378.393843c0 44.094012-29.781821 87.831889-74.365519 87.831889H138.202534c-44.583698 0-80.86499-35.88064-80.86499-79.996911V125.771179c0-44.11627 36.281292-79.99691 80.86499-79.996911h418.392298c12.754098 0 23.104283-10.238892 23.104283-22.859439S569.34893 0.077647 556.594832 0.077647H138.202534C68.132898 0.077647 11.128978 56.45833 11.128978 125.771179v772.457642c0 69.312849 57.00392 125.693531 127.073556 125.693532h711.269133C919.541303 1023.922353 968.354109 959.706692 968.354109 890.393843V512c0-12.620548-9.504363-22.258461-22.258462-22.258461z m46.342117-428.475381L951.615746 20.86705a69.958344 69.958344 0 0 0-98.026264 0L343.670391 525.555403a22.436529 22.436529 0 0 0-3.806197 4.985895L215.105518 767.638429a22.703631 22.703631 0 0 0 4.162332 27.667267c7.590135 7.189483 19.142277 8.413698 28.112437 2.960376l230.909278-132.059452a22.481046 22.481046 0 0 0 4.229108-3.294252L992.437764 158.246274a68.13315 68.13315 0 0 0 0-96.980116zM365.149806 579.354104l63.993076 63.124996-130.167482 70.670615 66.174406-133.795611zM959.762343 125.904729L466.025153 614.589248l-73.586473-72.629359L886.264903 53.186336c8.992418-8.903385 23.660744-8.903385 32.675422 0l40.822018 40.421366c9.014677 8.903385 9.014677 23.393643 0 32.297027z"  /></svg>