<?xml version="1.0" standalone="no"?><!DOCTYPE svg PUBLIC "-//W3C//DTD SVG 1.1//EN" "http://www.w3.org/Graphics/SVG/1.1/DTD/svg11.dtd"><svg class="icon" width="23px" height="23.00px" viewBox="0 0 1024 1024" version="1.1" xmlns="http://www.w3.org/2000/svg"><path fill="#ff2902" d="M983.04 786.773333H211.626667c-11.946667 1.706667-23.893333-5.12-37.546667-17.066666l-136.533333-158.72C23.893333 597.333333 15.36 578.56 15.36 558.08c0-20.48 8.533333-39.253333 22.186667-54.613333l134.826666-158.72c11.946667-11.946667 23.893333-18.773333 34.133334-18.773334h774.826666c22.186667 0 40.96 18.773333 40.96 40.96v380.586667c1.706667 20.48-17.066667 39.253333-39.253333 39.253333zM209.92 768h773.12c13.653333 0 23.893333-10.24 23.893333-23.893333V365.226667c0-13.653333-10.24-23.893333-23.893333-23.893334H206.506667c-3.413333 0-11.946667 1.706667-22.186667 11.946667L51.2 513.706667c-11.946667 11.946667-17.066667 27.306667-17.066667 42.666666s6.826667 30.72 17.066667 42.666667l136.533333 158.72c10.24 10.24 17.066667 11.946667 20.48 11.946667l1.706667-1.706667zM175.786667 554.666667m-44.373334 0a44.373333 44.373333 0 1 0 88.746667 0 44.373333 44.373333 0 1 0-88.746667 0ZM298.666667 680.96h151.893333v-23.893333H324.266667v-20.48h126.293333v-27.306667h-90.453333v11.946667h-23.893334v-124.586667h112.64v-23.893333h-150.186666v-20.48h150.186666V426.666667c-40.96 1.706667-81.92 1.706667-124.586666 3.413333-1.706667-6.826667-3.413333-15.36-5.12-22.186667 112.64-1.706667 203.093333-5.12 273.066666-8.533333l3.413334 22.186667c-39.253333 1.706667-80.213333 3.413333-122.88 5.12v27.306666h151.893333v20.48h-151.893333v23.893334h114.346666v124.586666H563.2v-11.946666h-90.453333v27.306666h126.293333v20.48h-126.293333V682.666667h151.893333v20.48H298.666667v-22.186667z m63.146666-138.24h90.453334v-29.013333h-90.453334v29.013333z m0 47.786667h90.453334v-29.013334h-90.453334v29.013334z m204.8-75.093334h-90.453333v29.013334h90.453333v-29.013334z m-92.16 75.093334h90.453334v-29.013334h-90.453334v29.013334zM638.293333 578.56h98.986667c6.826667-10.24 13.653333-20.48 18.773333-32.426667l25.6 10.24c-5.12 6.826667-10.24 15.36-13.653333 22.186667h201.386667v22.186667h-76.8c-11.946667 22.186667-29.013333 40.96-49.493334 56.32 32.426667 10.24 68.266667 20.48 104.106667 32.426666l-15.36 25.6c-37.546667-13.653333-76.8-25.6-117.76-40.96-39.253333 20.48-90.453333 34.133333-151.893333 42.666667-3.413333-8.533333-8.533333-17.066667-13.653334-25.6 54.613333-5.12 97.28-13.653333 131.413334-27.306667-27.306667-8.533333-54.613333-18.773333-83.626667-27.306666l25.6-35.84h-83.626667v-22.186667z m29.013334-119.466667H750.933333v-35.84h-98.986666v-22.186666h307.2v22.186666h-100.693334v35.84h83.626667v98.986667h-23.893333V546.133333H691.2v11.946667h-23.893333v-98.986667z m23.893333 64.853334H750.933333v-44.373334h-59.733333v44.373334z m44.373333 100.693333c23.893333 6.826667 49.493333 15.36 76.8 22.186667 22.186667-13.653333 37.546667-29.013333 49.493334-47.786667h-109.226667c-5.12 10.24-11.946667 18.773333-17.066667 25.6z m39.253334-165.546667h59.733333v-35.84h-59.733333v35.84z m0 64.853334h59.733333v-44.373334h-59.733333v44.373334z m143.36-44.373334h-59.733334v44.373334h59.733334v-44.373334z" /></svg>