<?xml version="1.0" standalone="no"?><!DOCTYPE svg PUBLIC "-//W3C//DTD SVG 1.1//EN" "http://www.w3.org/Graphics/SVG/1.1/DTD/svg11.dtd"><svg class="icon" width="18px" height="18.00px" viewBox="0 0 1024 1024" version="1.1" xmlns="http://www.w3.org/2000/svg"><path fill="#ffffff" d="M884.356055 613.635795c12.158924 0 21.985734-11.177574 21.985734-24.979928L906.341788 160.164816c0-8.992815-1.460258-17.48728-3.504824-25.728988 0 0-0.604774-2.321882-0.796132-3.084245-0.464581-1.861394-2.048659-7.344269-2.048659-7.344269-12.507872-34.403554-42.302455-58.633399-77.147054-58.633399L201.159998 65.373916c-15.884782 0-30.596855 5.308913-43.269479 14.047947l-1.086751-0.684592-1.810229 2.50096c-22.488177 16.983813-37.338397 45.957705-37.338397 78.926584l0 705.621812c0 52.331879 37.398772 94.789876 83.503832 94.789876l621.686145 0c46.105061 0 83.496669-42.457997 83.496669-94.789876L906.341788 786.853905c-0.077771-13.737886-9.876951-24.849968-21.985734-24.849968-12.085246 0-21.88852 11.112082-21.966291 24.849968l0 0.064468 0 0.064468 0 0.057305 0 73.748654c0 27.538193-19.679202 49.89334-43.953048 49.89334L387.383306 910.682142l-0.050142 0L205.568401 910.682142c-24.27487 0-43.958164-22.355147-43.958164-49.89334L161.610236 165.16162c0-7.67889 1.64957-14.795984 4.329609-21.293979l346.062713 214.560704 349.745592-200.447265c0.325411 2.371 0.641613 4.686742 0.641613 7.18054l0 423.49527C862.389764 602.459245 872.242156 613.635795 884.356055 613.635795L884.356055 613.635795zM509.505691 302.411541 214.385207 115.26828l604.050486 0c4.674463 0 9.083889 0.994654 13.279445 2.559289L509.505691 302.411541 509.505691 302.411541zM646.627698 653.851729l0-0.252757c12.05557 0 21.855774-11.118222 21.855774-24.856108 0-13.672394-9.800203-24.785499-21.855774-24.785499l-101.054557 0 98.345866-131.262556-0.138146-0.188288c9.032724-9.115612 9.827833-24.790616 1.835811-35.025725-8.020674-10.302647-21.85475-11.242042-30.860868-2.12643l-92.715635 122.452913L427.172521 429.983032c-9.031701-9.05012-22.837124-8.111748-30.860868 2.127454-7.996115 10.240225-7.203052 25.972535 1.827625 35.024701l-0.128937 0.187265 103.603613 135.445832 0 1.181919-104.130615-0.121773 0 0.121773c-12.063757 0-21.86396 11.119245-21.86396 24.792663 0 13.737886 9.801227 24.856108 21.86396 24.856108l0 0.122797 104.130615 0.064468 0 50.39169-104.130615-0.12382 0 0.12382c-12.088316 0-21.86396 11.177574-21.86396 24.849968 0 13.744026 9.775644 24.855084 21.86396 24.855084l0 0.065492 104.130615 0.121773 0 58.387805 0.109494 0c0 13.672394 9.79918 24.792663 21.855774 24.792663 12.084223 0 21.884426-11.119245 21.884426-24.792663l0.109494 0 0-58.387805 101.028974 0 0-0.188288c12.082176 0 21.855774-11.177574 21.855774-24.855084 0-13.738909-9.774621-24.849968-21.855774-24.849968l-101.028974 0 0-50.39169L646.627698 653.851729 646.627698 653.851729zM646.627698 653.851729" /></svg>