<?xml version="1.0" standalone="no"?><!DOCTYPE svg PUBLIC "-//W3C//DTD SVG 1.1//EN" "http://www.w3.org/Graphics/SVG/1.1/DTD/svg11.dtd"><svg class="icon" width="18px" height="18.00px" viewBox="0 0 1024 1024" version="1.1" xmlns="http://www.w3.org/2000/svg"><path fill="#ffffff" d="M160.491251 881.733832l-0.349971-700.894137h117.113301v38.531571c0 43.125193 34.834366 78.231759 77.68736 78.231759h311.679626c43.038212-0.193405 77.794807-35.193547 77.68736-78.231759v-38.531571l116.76333-0.312109 0.312108 700.894138-700.893114 0.312108z m505.97682-739.425709l0.155542 77.453023-311.525106-0.388856v-77.064167l-0.155542-0.388856 311.525106 0.388856z m194.410781-39.310308H733.411739c-13.467733-23.158443-38.220487-38.921451-66.789149-38.921451H354.942965c-28.568662 0-53.284577 15.724123-66.789149 38.921451H160.142304c-42.794665 0.042979-77.471442 34.736129-77.492932 77.530795v701.205222c0 42.736337 34.795481 77.530794 77.530794 77.530795h701.205223c42.792619-0.063445 77.467349-34.739199 77.530794-77.530795V180.52861c-0.171915-42.945091-35.091216-77.638241-78.037331-77.530795zM641.013329 430.28593L456.447776 632.054283 380.902196 547.400255c-14.316054-16.037255-38.921451-17.429974-54.956659-3.113921-16.036231 14.316054-17.430998 38.921451-3.113921 54.956659l104.229876 116.763331a38.922475 38.922475 0 0 0 28.801977 12.999058h0.234337c10.898211 0 21.328771-4.591575 28.724205-12.649088L698.460716 482.829634c14.510482-15.863293 13.412474-40.486086-2.452865-54.994522-15.863293-14.510482-40.485063-13.412474-54.994522 2.450818z" /></svg>