<?xml version="1.0" standalone="no"?><!DOCTYPE svg PUBLIC "-//W3C//DTD SVG 1.1//EN" "http://www.w3.org/Graphics/SVG/1.1/DTD/svg11.dtd"><svg class="icon" width="18px" height="17.98px" viewBox="0 0 1025 1024" version="1.1" xmlns="http://www.w3.org/2000/svg"><path fill="#ffffff" d="M803.776 1024 221.184 1024c-73.984 0-134.144-60.16-134.144-134.208l0-40.832c0-15.616 12.608-28.224 28.224-28.224 15.616 0 28.224 12.608 28.224 28.224l0 40.832c0 42.816 34.88 77.696 77.696 77.696l582.592 0c42.816 0 77.696-34.88 77.696-77.696l0-184.96c0-15.616 12.608-28.224 28.224-28.224 15.616 0 28.224 12.608 28.224 28.224l0 184.96C937.984 963.776 877.76 1024 803.776 1024L803.776 1024zM115.264 707.84c-15.616 0-28.224-12.608-28.224-28.224L87.04 513.664c0-15.616 12.608-28.224 28.224-28.224 15.616 0 28.224 12.608 28.224 28.224l0 165.952C143.488 695.232 130.88 707.84 115.264 707.84L115.264 707.84zM909.696 516.544c-15.616 0-28.224-12.608-28.224-28.224L881.472 307.2c0-42.816-34.88-77.696-77.696-77.696L221.184 229.504C178.368 229.504 143.488 264.384 143.488 307.2l0 36.992c0 15.616-12.608 28.224-28.224 28.224-15.616 0-28.224-12.608-28.224-28.224L87.04 307.2c0-73.984 60.16-134.208 134.144-134.208l582.592 0c73.984 0 134.208 60.16 134.208 134.208l0 181.056C937.984 503.872 925.312 516.544 909.696 516.544L909.696 516.544zM909.696 516.544"  /><path fill="#ffffff" d="M193.536 457.152 28.16 457.152c-15.616 0-28.224-12.608-28.224-28.224 0-15.616 12.608-28.224 28.224-28.224l165.376 0c15.616 0 28.224 12.608 28.224 28.224C221.824 444.544 209.152 457.152 193.536 457.152L193.536 457.152zM193.536 457.152"  /><path fill="#ffffff" d="M193.536 792.64 28.16 792.64c-15.616 0-28.224-12.608-28.224-28.224 0-15.616 12.608-28.224 28.224-28.224l165.376 0c15.616 0 28.224 12.608 28.224 28.224C221.824 779.968 209.152 792.64 193.536 792.64L193.536 792.64zM193.536 792.64"  /><path fill="#ffffff" d="M691.712 457.152 354.432 457.152c-15.616 0-28.224-12.608-28.224-28.224 0-15.616 12.608-28.224 28.224-28.224l337.344 0c15.616 0 28.224 12.608 28.224 28.224C720 444.544 707.328 457.152 691.712 457.152L691.712 457.152zM691.712 457.152"  /><path fill="#ffffff" d="M691.712 624.896 354.432 624.896c-15.616 0-28.224-12.608-28.224-28.224s12.608-28.224 28.224-28.224l337.344 0c15.616 0 28.224 12.608 28.224 28.224C720 612.288 707.328 624.896 691.712 624.896L691.712 624.896zM691.712 624.896"  /><path fill="#ffffff" d="M691.712 792.64 354.432 792.64c-15.616 0-28.224-12.608-28.224-28.224 0-15.616 12.608-28.224 28.224-28.224l337.344 0c15.616 0 28.224 12.608 28.224 28.224C720 779.968 707.328 792.64 691.712 792.64L691.712 792.64zM691.712 792.64"  /><path fill="#ffffff" d="M913.792 710.272c-61.632 0-111.808-50.176-111.808-111.808 0-61.696 50.176-111.872 111.808-111.872 61.696 0 111.808 50.176 111.808 111.872C1025.664 660.16 975.488 710.272 913.792 710.272L913.792 710.272zM913.792 543.104c-30.528 0-55.296 24.832-55.296 55.424 0 30.528 24.768 55.296 55.296 55.296 30.528 0 55.36-24.768 55.36-55.296C969.152 567.936 944.32 543.104 913.792 543.104L913.792 543.104zM913.792 543.104"  /></svg>