<?xml version="1.0" standalone="no"?><!DOCTYPE svg PUBLIC "-//W3C//DTD SVG 1.1//EN" "http://www.w3.org/Graphics/SVG/1.1/DTD/svg11.dtd"><svg class="icon" width="18px" height="18.00px" viewBox="0 0 1024 1024" version="1.1" xmlns="http://www.w3.org/2000/svg"><path fill="#ffffff" d="M516.097318 127.187751c81.059154 0 147.008168 65.337077 147.008168 145.647171 0 51.099818-26.293853 99.100042-70.674642 125.264958-22.182208 13.0799-34.482349 38.07927-31.302937 63.63532l23.708982 130.299624c3.829212 30.794353 30.000268 53.911864 61.031005 53.911864H832.381821c0.337691 0 0.511653 0.217964 0.573052 0.317225V778.002306a0.665149 0.665149 0 0 1-0.573052 0.320295H191.607946a0.654916 0.654916 0 0 1-0.561795-0.319271V646.266983v-0.007163a0.665149 0.665149 0 0 1 0.561795-0.314155h194.299241c31.029714 0 57.198723-23.115464 61.031005-53.905724L470.673779 461.500862c3.175319-25.501814-9.066493-50.461275-31.174-63.563687-44.220131-26.208918-70.414723-74.146721-70.414723-125.102253 0-80.310094 65.950038-145.647171 147.012262-145.647171z m0-64.6136c-116.691699 0-211.624838 94.322226-211.624838 210.260771 0 74.446549 38.615483 143.06844 102.081956 180.685175l-20.646226 130.922819H191.608969c-34.221406 0-62.063521 27.732621-62.063521 61.82202v131.726114c0 34.092469 27.843138 61.828161 62.063521 61.828161h640.773875c34.228569 0 62.073754-27.736715 62.073754-61.828161V646.26596c0-34.090423-27.845185-61.822021-62.073754-61.822021H645.86687l-20.621666-130.683365c63.703881-37.558407 102.471836-106.271372 102.471836-180.925652 0.001023-115.938546-94.931093-210.260771-211.619722-210.260771M869.885993 890.485147H154.11503c-19.023262 0-34.443463 15.420201-34.443463 34.443463s15.421224 34.443463 34.443463 34.443464H869.885993c19.023262 0 34.44244-15.420201 34.44244-34.443464s-15.420201-34.443463-34.44244-34.443463z" /></svg>