<?xml version="1.0" standalone="no"?><!DOCTYPE svg PUBLIC "-//W3C//DTD SVG 1.1//EN" "http://www.w3.org/Graphics/SVG/1.1/DTD/svg11.dtd"><svg class="icon" width="18px" height="18.00px" viewBox="0 0 1024 1024" version="1.1" xmlns="http://www.w3.org/2000/svg"><path fill="#ffffff" d="M749.568 631.616v-0.192l0.256-0.448 0.128 0.384-0.384 0.256zM724.864 619.2v-0.192l0.256-0.384 0.128 0.32-0.384 0.256zM512.448 132.8a31.36 31.36 0 0 1 30.976 26.56l4.8 28.8 27.84 9.024c13.184 4.224 128.96 45.568 128.96 179.52-0.192 25.088 1.408 247.872 106.944 340.224 1.088 0.896 26.624 22.656 26.624 61.248-0.704 30.976-23.36 30.976-33.088 30.976h-261.12v48l0.128 4.288a32.128 32.128 0 0 1-64-0.192l0.064-1.92 2.304-50.176H217.664l0.256-0.64-4.352 0.832c-14.4 0-23.68-11.712-27.776-34.752 1.28-9.344 6.848-37.888 30.144-58.88 17.664-14.592 103.36-97.6 103.36-338.752 0-1.344 1.344-136.64 130.176-180.288l27.264-9.152 4.8-28.352a31.424 31.424 0 0 1 30.912-26.368m0-48c-39.424 0-71.936 28.736-78.272 66.368l-0.256 0.128c-162.88 55.104-162.688 225.728-162.688 225.728 0 236.864-86.4 302.08-86.4 302.08-45.568 40.32-47.36 97.152-47.36 97.152 10.24 75.52 61.184 81.152 76.032 81.152 2.624 0 4.096-0.192 4.096-0.192h214.912c0 0.704-0.192 1.28-0.192 1.856 0 44.224 35.904 80.128 80.064 80.128s80.064-35.904 80.064-80.128c0-0.64-0.192-1.216-0.192-1.856h213.184c82.048 0 81.088-78.784 81.088-78.784 0-64.256-44.544-98.88-44.544-98.88-90.432-79.168-89.024-302.464-89.024-302.464 0-172.16-153.856-222.848-162.176-225.536a79.488 79.488 0 0 0-78.336-66.752z" /></svg>