<?xml version="1.0" standalone="no"?><!DOCTYPE svg PUBLIC "-//W3C//DTD SVG 1.1//EN" "http://www.w3.org/Graphics/SVG/1.1/DTD/svg11.dtd"><svg class="icon" width="23px" height="23.00px" viewBox="0 0 1024 1024" version="1.1" xmlns="http://www.w3.org/2000/svg"><path fill="#ff2902" d="M983.04 786.773333H211.626667c-11.946667 1.706667-23.893333-5.12-37.546667-17.066666l-136.533333-158.72C23.893333 597.333333 15.36 578.56 15.36 558.08c0-20.48 8.533333-39.253333 22.186667-54.613333l134.826666-158.72c11.946667-11.946667 23.893333-18.773333 34.133334-18.773334h774.826666c22.186667 0 40.96 18.773333 40.96 40.96v380.586667c1.706667 20.48-17.066667 39.253333-39.253333 39.253333zM209.92 768h773.12c13.653333 0 23.893333-10.24 23.893333-23.893333V365.226667c0-13.653333-10.24-23.893333-23.893333-23.893334H206.506667c-3.413333 0-11.946667 1.706667-22.186667 11.946667L51.2 513.706667c-11.946667 11.946667-17.066667 27.306667-17.066667 42.666666s6.826667 30.72 17.066667 42.666667l136.533333 158.72c10.24 10.24 17.066667 11.946667 20.48 11.946667l1.706667-1.706667zM175.786667 554.666667m-44.373334 0a44.373333 44.373333 0 1 0 88.746667 0 44.373333 44.373333 0 1 0-88.746667 0ZM390.826667 646.826667l17.066666 18.773333c-30.72 17.066667-59.733333 34.133333-90.453333 49.493333-3.413333-5.12-8.533333-13.653333-13.653333-22.186666 29.013333-11.946667 58.026667-27.306667 87.04-46.08zM317.44 409.6H341.333333v110.933333h-23.893333V409.6z m220.16 165.546667c25.6 20.48 47.786667 40.96 69.973333 63.146666l-18.773333 17.066667-25.6-25.6c-27.306667 1.706667-54.613333 3.413333-81.92 3.413333v44.373334c0 25.6-13.653333 39.253333-39.253333 39.253333h-42.666667c-1.706667-6.826667-1.706667-17.066667-3.413333-25.6 17.066667 1.706667 30.72 3.413333 40.96 3.413333 11.946667 0 18.773333-6.826667 18.773333-18.773333v-40.96c-25.6 1.706667-51.2 3.413333-76.8 3.413333-15.36 1.706667-27.306667 1.706667-39.253333 5.12l-13.653334-25.6c17.066667-3.413333 32.426667-6.826667 44.373334-11.946666 29.013333-10.24 58.026667-22.186667 85.333333-32.426667-27.306667 1.706667-52.906667 3.413333-78.506667 5.12-8.533333 0-17.066667 1.706667-25.6 3.413333l-10.24-25.6c11.946667-3.413333 22.186667-6.826667 32.426667-8.533333 25.6-10.24 46.08-20.48 61.44-29.013333-3.413333-6.826667-6.826667-13.653333-10.24-18.773334 22.186667-3.413333 44.373333-8.533333 63.146667-15.36-17.066667-13.653333-30.72-30.72-40.96-51.2h-15.36v-20.48h160.426666v22.186667c-15.36 20.48-34.133333 37.546667-58.026666 51.2 23.893333 10.24 52.906667 15.36 87.04 17.066667-5.12 8.533333-8.533333 17.066667-13.653334 25.6-39.253333-5.12-71.68-13.653333-98.986666-29.013334-17.066667 8.533333-37.546667 15.36-58.026667 20.48l11.946667 8.533334c-29.013333 11.946667-54.613333 23.893333-76.8 32.426666 34.133333-1.706667 71.68-1.706667 112.64-3.413333 13.653333-6.826667 27.306667-11.946667 40.96-18.773333l18.773333 15.36c-49.493333 22.186667-107.52 44.373333-172.373333 68.266666 49.493333-1.706667 102.4-5.12 158.72-8.533333-6.826667-6.826667-15.36-13.653333-22.186667-22.186667l15.36-17.066666z m-155.306667-175.786667h23.893334v122.88h-23.893334v-122.88z m179.2 34.133333h-92.16c10.24 15.36 23.893333 29.013333 39.253334 39.253334 20.48-10.24 37.546667-23.893333 52.906666-39.253334z m-52.906666 235.52l11.946666-20.48c32.426667 13.653333 63.146667 27.306667 92.16 40.96l-13.653333 23.893334c-27.306667-15.36-58.026667-29.013333-90.453333-44.373334zM672.426667 583.68h233.813333v-30.72H680.96v-22.186667h225.28v-30.72h-221.866667v-11.946666c-8.533333 8.533333-18.773333 15.36-29.013333 22.186666-5.12-5.12-11.946667-11.946667-18.773333-17.066666 44.373333-30.72 78.506667-64.853333 100.693333-102.4l27.306667 6.826666c-5.12 8.533333-11.946667 17.066667-18.773334 25.6h126.293334v22.186667c-6.826667 6.826667-17.066667 17.066667-30.72 32.426667h88.746666v139.946666H904.533333v-11.946666h-110.933333c13.653333 13.653333 25.6 27.306667 37.546667 42.666666l-22.186667 17.066667c-11.946667-15.36-23.893333-30.72-37.546667-46.08l15.36-11.946667h-116.053333v-23.893333z m-5.12 39.253333l25.6 6.826667c-6.826667 23.893333-17.066667 47.786667-29.013334 75.093333-6.826667-3.413333-15.36-6.826667-23.893333-10.24 10.24-23.893333 20.48-47.786667 27.306667-71.68z m172.373333-177.493333h-110.933333c-10.24 11.946667-20.48 22.186667-32.426667 32.426667h114.346667c10.24-11.946667 20.48-22.186667 29.013333-32.426667z m-119.466667 179.2h25.6v47.786667c0 13.653333 6.826667 22.186667 18.773334 22.186666h75.093333c13.653333 0 22.186667-5.12 25.6-17.066666 1.706667-8.533333 5.12-22.186667 6.826667-37.546667l25.6 10.24c-3.413333 17.066667-6.826667 30.72-8.533334 37.546667-5.12 20.48-20.48 30.72-44.373333 30.72h-87.04c-25.6 0-39.253333-13.653333-39.253333-42.666667v-51.2z m184.32 10.24l20.48-13.653333c15.36 20.48 30.72 39.253333 44.373334 59.733333l-22.186667 15.36c-15.36-22.186667-29.013333-42.666667-42.666667-61.44z" /></svg>