<?xml version="1.0" standalone="no"?><!DOCTYPE svg PUBLIC "-//W3C//DTD SVG 1.1//EN" "http://www.w3.org/Graphics/SVG/1.1/DTD/svg11.dtd"><svg class="icon" width="18px" height="18.00px" viewBox="0 0 1024 1024" version="1.1" xmlns="http://www.w3.org/2000/svg"><path fill="#ffffff" d="M867.85024 286.14144h-103.296a106.68544 106.68544 0 0 0 12.84096-50.90304c0-28.59008-11.17184-55.51104-31.45728-75.79136C725.6576 139.16672 698.74176 128 670.15168 128c-58.32192 0-106.45504 45.35296-129.96096 72.38656a307.87584 307.87584 0 0 0-28.19584 37.87776 311.936 311.936 0 0 0-28.18048-37.87264C460.27776 173.35296 412.09344 128 353.8432 128c-59.13088 0-107.2384 48.1024-107.2384 107.23328 0 17.8688 4.4288 35.328 12.86656 50.90816H156.16512A28.19584 28.19584 0 0 0 128 314.30656v118.61504c0 15.53408 12.63616 28.16 28.16512 28.16h11.36128v367.19104c0 37.3504 30.37696 67.72224 67.712 67.72224h553.51296c37.32992 0 67.70176-30.37184 67.70176-67.72224V461.09184h11.39712a28.1856 28.1856 0 0 0 28.14976-28.16V314.31168a28.19584 28.19584 0 0 0-28.14976-28.17024z m-319.66208 34.51904v543.7696H475.8272V320.66048h72.36096z m-103.8848 140.38016v403.38944H235.2384c-19.95264 0-36.18304-16.20992-36.18304-36.15232V461.09184l245.248-0.0512z m225.84832-301.49632c41.74848 0 75.71456 33.95584 75.71456 75.69408 0 16.54272-5.22752 32.2304-15.13472 45.37344l-4.16768 5.53984h-205.55776l11.20768-20.15232c8.48384-15.26784 19.46624-30.78656 31.75424-44.89728 19.98848-22.99392 60.35456-61.55776 106.18368-61.55776z m-90.46016 157.98784h123.19744l-0.13824 0.18432h161.73056v111.83616h-284.78464V317.53216zM353.8432 159.54432c45.7728 0 86.17984 38.56896 106.1888 61.54752 12.40064 14.28992 23.38304 29.81888 31.75936 44.90752l11.20256 20.1472h-205.568l-4.14208-5.51936a74.9568 74.9568 0 0 1-15.1552-45.3888c0.00512-41.73824 33.96608-75.69408 75.71456-75.69408z m-32.84992 157.98784h123.31008v111.71328l-267.65824 0.28672h-17.12128v-111.8208H321.1264l-0.13312-0.1792z m503.94624 143.55968v367.19104c0 19.9424-16.23552 36.15232-36.18304 36.15232h-209.06496V461.09184h245.248z" /></svg>